<svg xmlns="http://www.w3.org/2000/svg" version="1.1" xmlns:xlink="http://www.w3.org/1999/xlink" xmlns:svgjs="http://svgjs.dev/svgjs" viewBox="0 0 1920 1080"><rect width="1920" height="1080" fill="#1a2376"></rect><g transform="matrix(0.8131727983645296,0.8131727983645295,-0.8131727983645295,0.8131727983645296,605.8140039705152,-624.6846824721611)"><path d="M0,-1080C-16.31768909085265,-962.6811548478215,-77.38919564175389,-607.5605895531585,-97.90613454511589,-376.08692908692905C-118.4230734484779,-144.61326862069967,-154.56159043176962,99.81988320920081,-123.10163342017205,308.84196279737625C-91.64167640857448,517.8640423855517,87.1390097645045,686.1815072472443,90.85360752446951,878.0455484421236C94.56820528443453,1069.909589637003,-85.67177893963704,1246.3671347070058,-100.81404686038195,1460.0262099666518C-115.95631478112686,1673.6852852262978,-16.80234114339699,2043.3377016611087,0,2160L 1920 2160 L 1920 -1080 Z" fill="url(&quot;#SvgjsLinearGradient1025&quot;)"></path><path d="M480,-1080C473.23307027112884,-1008.25512816679,442.5120581145018,-824.8179196333504,439.39842162677303,-649.5307690007396C436.28478513904423,-474.24361836812886,442.6310355507881,-232.7621489180764,461.3181810736272,-28.277096204335407C480.0053265964663,176.2079565094056,556.6912165522416,410.3103594718205,551.5212947638075,577.3795472817064C546.3513729753735,744.4487350915924,432.15465262160177,792.533706236885,430.29865034302304,974.1380306549802C428.4426480644443,1155.7423550730753,532.1017228161724,1469.361832232774,540.3852810923352,1667.0054937902773C548.668839368498,1864.6491553477806,490.0642135153892,2077.8342489650463,480,2160L 1920 2160 L 1920 -1080 Z" fill="url(&quot;#SvgjsLinearGradient1026&quot;)"></path><path d="M960,-1080C950.2768200384551,-1029.7739461410376,901.9149681898509,-893.1243764400942,901.6609202307307,-778.6436768462264C901.4068722716104,-664.1629772523586,952.0356484885094,-535.3087608695637,958.475712245278,-393.1158024367934C964.9157760020466,-250.92284400402312,948.6396091945678,-80.68930586407308,940.3013027713421,74.51407375039514C931.9629963481163,229.71745336486336,889.1823806707182,410.44459597618334,908.4458737059235,538.1044752500159C927.7093667411289,665.7643545238484,1038.5693434112295,684.2392036577836,1055.8822609825743,840.4733493933902C1073.195178553919,996.7074951289968,1028.9699892295616,1344.194577169825,1012.3233791339917,1475.5093496636555C995.6767690384216,1606.824122157486,964.7231635981528,1514.2802093003163,956.0026004091542,1628.3619843563738C947.2820372201555,1742.4437594124313,959.3337667348591,2071.3936640593956,960,2160L 1920 2160 L 1920 -1080 Z" fill="url(&quot;#SvgjsLinearGradient1027&quot;)"></path><path d="M1440,-1080C1439.9513667330104,-970.0679936954517,1436.4667193459388,-616.102357770715,1439.7082003980627,-420.4079621727101C1442.9496814501865,-224.71356657470514,1478.4947697956713,-66.79967784941013,1459.448886312743,94.16637358802978C1440.4030028298148,255.1324250254697,1327.4023363773028,393.0231146243002,1325.4328995004932,545.3883464519295C1323.4634626236837,697.7535782795587,1409.2133652809196,823.3099838439819,1447.632265051885,1008.3577645538053C1486.0511648228505,1193.4055452636287,1557.2183423016002,1463.7346581365043,1555.946298126286,1655.67503071087C1554.6742539509717,1847.6154032852357,1459.3243830210477,2075.9458384518116,1440,2160L 1920 2160 L 1920 -1080 Z" fill="url(&quot;#SvgjsLinearGradient1028&quot;)"></path></g><defs><linearGradient x1="0.1" y1="0" x2="0" y2="1" id="SvgjsLinearGradient1025"><stop stop-color="#1a2376" offset="0"></stop><stop stop-color="#1a3276" offset="0"></stop></linearGradient><linearGradient x1="0.1" y1="0" x2="0" y2="1" id="SvgjsLinearGradient1026"><stop stop-color="#2d3dcd" offset="0"></stop><stop stop-color="#2d58cd" offset="0.25"></stop></linearGradient><linearGradient x1="0.1" y1="0" x2="0" y2="1" id="SvgjsLinearGradient1027"><stop stop-color="#828be3" offset="0"></stop><stop stop-color="#829be3" offset="0.5"></stop></linearGradient><linearGradient x1="0.1" y1="0" x2="0" y2="1" id="SvgjsLinearGradient1028"><stop stop-color="#d9dcf7" offset="0"></stop><stop stop-color="#d9e1f7" offset="0.75"></stop></linearGradient></defs></svg>